<svg width="512" height="512" viewBox="0 0 512 512" fill="none" xmlns="http://www.w3.org/2000/svg">
<path d="M256 512C397.385 512 512 397.385 512 256C512 114.615 397.385 0 256 0C114.615 0 0 114.615 0 256C0 397.385 114.615 512 256 512Z" fill="#6769D2"/>
<path d="M512 256C512 241.617 510.794 227.518 508.515 213.782L390.365 95.632L100.757 219.722V411.962L192.965 504.17C213.131 509.277 234.247 512 256 512C397.385 512 512 397.385 512 256Z" fill="#4345D8"/>
<path d="M411.24 219.72H100.76V411.96H411.24V219.72Z" fill="#414952"/>
<path d="M411.24 219.72H255.76V411.96H411.24V219.72Z" fill="#23272B"/>
<path d="M411.24 219.72H100.76V273.29H411.24V219.72Z" fill="white"/>
<path d="M411.24 219.72H255.76V273.29H411.24V219.72Z" fill="#F7F7F7"/>
<path d="M259 273.295H230.333L253 219.722H281.667L259 273.295Z" fill="#707789"/>
<path d="M281.667 219.722H255.762V273.295H259L281.667 219.722Z" fill="#636978"/>
<path d="M194.212 273.295H165.546L188.212 219.722H216.879L194.212 273.295Z" fill="#707789"/>
<path d="M129.424 273.295H100.758L123.424 219.722H152.091L129.424 273.295Z" fill="#707789"/>
<path d="M323.788 273.295H295.121L317.788 219.722H346.454L323.788 273.295Z" fill="#636978"/>
<path d="M388.576 273.295H359.909L382.576 219.722H411.242L388.576 273.295Z" fill="#636978"/>
<path d="M390.39 95.6452L88.3444 167.617L100.762 219.732L402.808 147.76L390.39 95.6452Z" fill="white"/>
<path d="M390.365 95.632L255.762 127.71V182.782L402.784 147.745L390.365 95.632Z" fill="#F7F7F7"/>
<path d="M254.689 183.037L226.804 189.683L236.434 132.316L264.32 125.67L254.689 183.037Z" fill="#707789"/>
<path d="M255.762 127.71V176.648L264.32 125.67L255.762 127.71Z" fill="#636978"/>
<path d="M191.667 198.056L163.781 204.702L173.411 147.335L201.297 140.689L191.667 198.056Z" fill="#707789"/>
<path d="M128.644 213.076L100.758 219.721L110.389 162.354L138.274 155.708L128.644 213.076Z" fill="#707789"/>
<path d="M317.712 168.018L289.826 174.664L299.457 117.297L327.343 110.651L317.712 168.018Z" fill="#636978"/>
<path d="M380.735 152.999L352.849 159.645L362.48 102.278L390.365 95.632L380.735 152.999Z" fill="#636978"/>
</svg>
